/* XPM */
static const char *disk_icon0_xpm[] = {
/* columns rows colors chars-per-pixel */
"22 13 5 1",
"# c black",
"r c red",
"X c #808080",
". c None",
"- c gray100",
/* pixels */
"......XXXXXXXXXXX.....",
"....XX-----------XX...",
"...X------XXX------X..",
"..X------X---X------X.",
"...X------XXX------X..",
"..X-XX-----------XX-X.",
"...X--XXXXXXXXXXX--X..",
"..X-XX-----------XX-X.",
"...X--XXXXXXXXXXX--X..",
"..X-XX-----------XX-X.",
"...X--XXXXXXXXXXX--X..",
"....XX-----------XX...",
"......XXXXXXXXXXX....."
};
