/* XPM */
static const char *disk_icon1_xpm[] = {
/* columns rows colors chars-per-pixel */
"22 13 5 1",
"# c black",
"r c red",
"X c #808080",
". c None",
"- c gray100",
/* pixels */
"......###########.....",
"....##-----------##...",
"...#------rrr------#..",
"..#------rrrrr------#.",
"...#------rrr------#..",
"..#-##-----------##-#.",
"...#--###########--#..",
"..#-##-----------##-#.",
"...#--###########--#..",
"..#-##-----------##-#.",
"...#--###########--#..",
"....##-----------##...",
"......###########....."
};
