/* XPM */
static char *icons_xpm[] = {
/* columns rows colors chars-per-pixel */
"132 13 5 1",
"# c black",
"r c red",
"X c #808080",
". c None",
"- c gray100",
/* pixels */
"......XXXXXXXXXXX...........###########........#################.....#################.....#################.....#################..",
"....XX-----------XX.......##-----------##......#---------------#.....#---------------#.....#---------------#.....#---------------#..",
"...X------XXX------X.....#------rrr------#.....#---------------#.....#---------------#.....#---------------#.....#---------------#..",
"..X------X---X------X...#------rrrrr------#....#---------------#.....#---------------#.....#---------------#.....#---------------#..",
"...X------XXX------X.....#------rrr------#.....#---------------#.....#---------------#.....#-----#####-----#.....#-----#####-----#..",
"..X-XX-----------XX-X...#-##-----------##-#....#-----#####-----#.....#-----#####-----#.....#-----#####-----#.....#-----#####-----#..",
"...X--XXXXXXXXXXX--X.....#--###########--#.....#--###########--#.....#--###########--#.....#--XXXXXXXXXXX--#.....#--XXXXXXXXXXX--#..",
"..X-XX-----------XX-X...#-##-----------##-#....#-----#####-----#.....#-----#####-----#.....#---------------#.....#---------------#..",
"...X--XXXXXXXXXXX--X.....#--###########--#.....#---------------#.....#-----------rr--#.....#---------------#.....#-----------rr--#..",
"..X-XX-----------XX-X...#-##-----------##-#....#---------------#.....#-----------rr--#.....#---------------#.....#-----------rr--#..",
"...X--XXXXXXXXXXX--X.....#--###########--#.....#---------------#.....#---------------#.....#---------------#.....#---------------#..",
"....XX-----------XX.......##-----------##......#---------------#.....#---------------#.....#---------------#.....#---------------#..",
"......XXXXXXXXXXX...........###########........#################.....#################.....#################.....#################.."
};
