/* XPM */
static char *sfkey_xpm[] = {
/* columns rows colors chars-per-pixel */
"16 15 3 1",
"X c #000000",
"o c #bbbbbb",
". c None",
/* pixels */
"................",
"................",
"................",
"................",
"................",
".XXXXXXXXXXXXXX.",
"XooooooooooooooX",
"XooooooooooooooX",
"XooooooooooooooX",
".XXXXXXXXXXXXXX.",
"................",
"................",
"................",
"................",
"................",
};
