/* XPM */
static const char *wang_icon48_xpm[] = {
/* width height num_colors chars_per_pixel */
"    48    48      256            2",
/* colors */
"`` c #000000",
"`. c #ffffff",
"`# c #ccc9cb",
"`a c #d0c9d0",
"`b c #cfc9cf",
"`c c #cdc9cd",
"`d c #cac8ca",
"`e c #c9c8c9",
"`f c #adc4af",
"`g c #ecf7ed",
"`h c #45ae4c",
"`i c #48b050",
"`j c #4bb152",
"`k c #4db455",
"`l c #4db255",
"`m c #4fb357",
"`n c #51b458",
"`o c #52b459",
"`p c #54b55b",
"`q c #56b55d",
"`r c #5ab760",
"`s c #5fba66",
"`t c #68bc6e",
"`u c #74bf7a",
"`v c #81c086",
"`w c #9dd4a1",
"`x c #90c094",
"`y c #b7e0ba",
"`z c #cde9cf",
"`A c #dcefdd",
"`B c #c3c7c3",
"`C c #c8c8c8",
"`D c #000000",
"`E c #000000",
"`F c #000000",
"`G c #000000",
"`H c #000000",
"`I c #000000",
"`J c #000000",
"`K c #000000",
"`L c #000000",
"`M c #000000",
"`N c #000000",
"`O c #000000",
"`P c #000000",
"`Q c #000000",
"`R c #000000",
"`S c #000000",
"`T c #000000",
"`U c #000000",
"`V c #000000",
"`W c #000000",
"`X c #000000",
"`Y c #000000",
"`Z c #000000",
"`0 c #000000",
"`1 c #000000",
"`2 c #000000",
"`3 c #000000",
"`4 c #000000",
"`5 c #000000",
"`6 c #000000",
"`7 c #000000",
"`8 c #000000",
".` c #000000",
".. c #000000",
".# c #000000",
".a c #000000",
".b c #000000",
".c c #000000",
".d c #000000",
".e c #000000",
".f c #000000",
".g c #000000",
".h c #000000",
".i c #000000",
".j c #000000",
".k c #000000",
".l c #000000",
".m c #000000",
".n c #000000",
".o c #000000",
".p c #000000",
".q c #000000",
".r c #000000",
".s c #000000",
".t c #000000",
".u c #000000",
".v c #000000",
".w c #000000",
".x c #000000",
".y c #000000",
".z c #000000",
".A c #000000",
".B c #000000",
".C c #000000",
".D c #000000",
".E c #000000",
".F c #000000",
".G c #000000",
".H c #000000",
".I c #000000",
".J c #000000",
".K c #000000",
".L c #000000",
".M c #000000",
".N c #000000",
".O c #000000",
".P c #000000",
".Q c #000000",
".R c #000000",
".S c #000000",
".T c #000000",
".U c #000000",
".V c #000000",
".W c #000000",
".X c #000000",
".Y c #000000",
".Z c #000000",
".0 c #000000",
".1 c #000000",
".2 c #000000",
".3 c #000000",
".4 c #000000",
".5 c #000000",
".6 c #000000",
".7 c #000000",
".8 c #000000",
"#` c #000000",
"#. c #000000",
"## c #000000",
"#a c #000000",
"#b c #000000",
"#c c #000000",
"#d c #000000",
"#e c #000000",
"#f c #000000",
"#g c #000000",
"#h c #000000",
"#i c #000000",
"#j c #000000",
"#k c #000000",
"#l c #000000",
"#m c #000000",
"#n c #000000",
"#o c #000000",
"#p c #000000",
"#q c #000000",
"#r c #000000",
"#s c #000000",
"#t c #000000",
"#u c #000000",
"#v c #000000",
"#w c #000000",
"#x c #000000",
"#y c #000000",
"#z c #000000",
"#A c #000000",
"#B c #000000",
"#C c #000000",
"#D c #000000",
"#E c #000000",
"#F c #000000",
"#G c #000000",
"#H c #000000",
"#I c #000000",
"#J c #000000",
"#K c #000000",
"#L c #000000",
"#M c #000000",
"#N c #000000",
"#O c #000000",
"#P c #000000",
"#Q c #000000",
"#R c #000000",
"#S c #000000",
"#T c #000000",
"#U c #000000",
"#V c #000000",
"#W c #000000",
"#X c #000000",
"#Y c #000000",
"#Z c #000000",
"#0 c #000000",
"#1 c #000000",
"#2 c #000000",
"#3 c #000000",
"#4 c #000000",
"#5 c #000000",
"#6 c #000000",
"#7 c #000000",
"#8 c #000000",
"a` c #000000",
"a. c #000000",
"a# c #000000",
"aa c #000000",
"ab c #000000",
"ac c #000000",
"ad c #000000",
"ae c #000000",
"af c #000000",
"ag c #000000",
"ah c #000000",
"ai c #000000",
"aj c #000000",
"ak c #000000",
"al c #000000",
"am c #000000",
"an c #000000",
"ao c #000000",
"ap c #000000",
"aq c #000000",
"ar c #000000",
"as c #000000",
"at c #000000",
"au c #000000",
"av c #000000",
"aw c #000000",
"ax c #000000",
"ay c #000000",
"az c #000000",
"aA c #000000",
"aB c #000000",
"aC c #000000",
"aD c #000000",
"aE c #000000",
"aF c #000000",
"aG c #000000",
"aH c #000000",
"aI c #000000",
"aJ c #000000",
"aK c #000000",
"aL c #000000",
"aM c #000000",
"aN c #000000",
"aO c #000000",
"aP c #000000",
"aQ c #000000",
"aR c #000000",
"aS c #000000",
"aT c #000000",
"aU c #000000",
"aV c #000000",
"aW c #000000",
"aX c #000000",
"aY c #000000",
"aZ c #000000",
"a0 c #000000",
"a1 c #000000",
"a2 c #000000",
"a3 c #000000",
"a4 c #000000",
"a5 c #000000",
"a6 c #000000",
"a7 c #000000",
"a8 c #000000",
/* pixels */
"`C`C`C`C`C`C`C`C`C`C`C`C`C`C`C`C`C`C`C`C`C`C`C`C`C`C`C`C`C`C`C`C`C`C`C`C`C`C`C`C`C`C`C`C`C`C`C`C",
"`C`C`C`C`C`C`C`C`C`C`C`C`C`C`C`C`C`C`C`C`C`C`C`C`C`C`C`C`C`C`C`C`C`C`C`C`C`C`C`C`C`C`C`C`C`C`C`C",
"`C`C`C`C`C`C`C`C`C`C`C`C`C`C`C`C`C`C`C`C`C`C`C`C`C`C`C`C`C`C`C`C`C`C`C`C`C`C`C`C`C`C`C`C`C`C`C`C",
"`C`C`C`C`C`C`C`C`C`C`C`C`C`C`C`C`C`C`C`C`C`C`C`C`C`C`C`C`C`C`C`C`C`C`C`C`C`C`C`C`C`C`C`C`C`C`C`C",
"`C`C`C`C`C`C`C`C`C`C`C`C`C`C`C`C`C`C`C`C`C`C`C`C`C`C`C`C`C`C`C`C`C`C`C`C`C`C`C`C`C`C`C`C`C`C`C`C",
"`C`C`C`C`C`C`C`C`C`C`C`C`C`C`C`C`C`C`C`C`C`C`C`C`C`C`C`C`C`C`C`C`C`C`C`C`C`C`C`C`C`C`C`C`C`C`C`C",
"`C`C`C`C`C`C`C`C`C`C`C`C`C`C`C`C`C`C`C`C`C`C`C`C`C`C`C`C`C`C`C`C`C`C`C`C`C`C`C`C`C`C`C`C`C`C`C`C",
"`C`C`C`C`C`C`C`C`C`C`C`C`C`C`C`C`C`C`C`C`C`C`C`C`C`C`C`C`C`C`C`C`C`C`C`C`C`C`C`C`C`C`C`C`C`C`C`C",
"`C`C`C`C`C`C`C`C`C`C`C`C`C`C`C`C`C`C`C`C`C`C`C`C`C`C`C`C`C`C`C`C`C`C`C`C`C`C`C`C`C`C`C`C`C`C`C`C",
"`C`C`C`C`C`C`C`C`C`C`C`C`C`C`C`C`C`C`C`C`C`C`C`C`C`C`C`C`C`C`C`C`C`C`C`C`C`C`C`C`C`C`C`C`C`C`C`C",
"`C`C`C`C`C`C`C`C`C`C`C`C`C`C`C`C`C`C`C`C`C`C`C`C`C`C`C`C`C`C`C`C`C`C`C`C`C`C`C`C`C`C`C`C`C`C`C`C",
"`C`C`C`C`C`C`C`C`C`C`C`C`C`C`C`C`C`C`C`C`C`C`C`C`C`C`C`C`C`C`C`C`C`C`C`C`C`C`C`C`C`C`C`C`C`C`C`C",
"`C`C`C`C`C`C`C`C`C`C`C`C`C`C`C`C`C`C`C`C`C`C`C`C`C`C`C`C`C`C`C`C`C`C`C`C`C`C`C`C`C`C`C`C`C`C`C`C",
"`C`C`C`C`C`C`C`C`C`C`C`C`C`C`C`C`C`C`C`C`C`C`C`C`C`C`C`C`C`C`C`C`C`C`C`C`C`C`C`C`C`C`C`C`C`C`C`C",
"`C`C`C`C`C`e`e`e`e`e`e`e`e`e`e`e`e`e`e`e`e`e`e`e`e`e`e`e`e`e`d`d`d`d`d`d`d`d`d`d`d`d`d`e`C`C`C`C",
"`C`C`C`d`c`#`#`#`#`#`#`#`#`#`#`#`#`#`e`e`C`e`C`C`C`C`C`C`C`B`B`B`B`B`B`B`B`B`B`B`B`B`B`C`d`C`C`C",
"`C`C`d`B`x`v`v`v`v`v`v`v`v`v`v`v`v`v`u`u`u`u`u`u`u`u`u`u`u`t`t`t`t`t`t`t`t`t`t`t`t`s`r`u`B`#`C`C",
"`C`C`c`v`j`k`k`k`k`k`k`k`k`k`k`k`k`k`m`m`m`m`m`m`m`m`m`m`m`n`n`n`n`n`n`n`n`n`n`n`n`n`o`k`v`#`C`C",
"`C`c`f`p`o`p`p`p`o`p`p`o`o`p`p`p`o`o`p`p`p`p`p`p`p`p`o`o`p`p`p`o`p`p`p`n`j`j`m`o`p`p`p`o`p`f`c`C",
"`e`e`u`k`p`p`p`p`o`p`p`p`o`p`p`q`q`r`p`o`n`p`p`p`p`r`r`p`o`p`r`r`r`p`l`s`x`w`t`r`p`p`p`p`k`u`d`e",
"`#`f`p`p`p`p`p`y`z`x`p`y`z`x`j`t`z`y`n`p`y`x`j`p`l`v`A`z`r`j`v`A`v`h`u`g`A`y`z`g`t`m`p`p`o`q`f`#",
"`b`x`k`p`p`p`m`v`.`w`h`x`.`v`j`r`A`u`l`s`.`A`n`p`o`r`A`.`y`i`s`A`r`s`g`z`q`h`t`A`t`n`p`p`p`m`x`b",
"`b`v`k`p`p`p`o`p`A`z`i`t`.`y`h`u`z`n`j`v`g`.`v`l`o`r`y`y`.`v`p`z`q`w`.`u`j`p`m`s`r`p`p`p`p`k`v`b",
"`d`u`m`p`p`p`p`j`w`.`s`x`.`g`p`w`w`j`m`y`v`A`z`m`o`r`y`s`z`g`t`z`s`z`.`s`n`p`n`i`l`p`p`p`p`k`v`#",
"`e`u`m`p`p`p`p`m`t`.`w`y`w`.`w`y`t`j`u`y`i`w`.`u`j`r`y`r`t`.`z`z`r`z`.`s`n`m`u`y`w`n`p`p`p`k`v`#",
"`c`v`k`p`p`p`p`p`m`z`g`z`m`A`g`z`n`i`w`A`y`z`.`y`j`r`y`s`i`w`.`g`m`w`.`v`i`m`s`g`z`k`p`p`p`k`x`b",
"`b`x`k`p`p`p`p`p`j`w`.`w`h`w`.`w`h`s`z`u`t`s`y`.`t`m`y`s`m`n`z`g`q`s`A`A`t`l`s`g`A`q`o`p`p`m`x`b",
"`c`f`p`p`p`p`p`p`n`s`A`t`j`t`A`u`l`y`g`t`j`j`w`.`y`u`A`v`l`l`t`z`s`l`s`y`A`y`A`g`y`s`o`p`o`r`B`#",
"`e`C`t`m`p`p`p`p`p`p`r`p`p`o`s`p`p`u`u`s`o`p`t`t`t`s`t`s`o`p`n`r`p`p`m`l`s`u`u`r`m`o`p`p`k`v`#`C",
"`C`b`f`n`p`p`p`p`p`p`o`p`p`p`n`p`p`m`m`o`p`p`n`m`n`o`n`o`p`p`p`o`p`p`p`p`n`m`m`n`p`p`p`n`q`f`#`C",
"`C`e`#`v`j`k`k`k`k`k`k`k`k`k`k`k`k`k`k`k`k`k`k`k`k`k`k`k`k`k`k`k`k`k`k`k`k`k`k`k`k`k`k`k`x`c`C`C",
"`C`C`#`B`x`v`v`v`v`v`v`v`x`x`x`x`x`x`x`x`x`x`x`x`x`x`x`x`x`x`x`x`x`x`x`x`x`x`x`x`x`x`x`f`C`e`C`C",
"`C`C`C`d`c`c`c`c`c`c`b`c`b`a`b`b`b`b`b`b`b`a`a`a`a`a`a`a`a`a`a`a`b`b`b`b`b`b`b`b`b`b`b`b`e`C`C`C",
"`C`C`C`C`C`C`C`C`C`C`C`C`C`C`C`C`C`C`C`C`C`C`C`C`C`C`C`C`C`C`C`C`C`C`C`C`C`C`C`C`C`C`C`C`C`C`C`C",
"`C`C`C`C`C`C`C`C`C`C`C`C`C`C`C`C`C`C`C`C`C`C`C`C`C`C`C`C`C`C`C`C`C`C`C`C`C`C`C`C`C`C`C`C`C`C`C`C",
"`C`C`C`C`C`C`C`C`C`C`C`C`C`C`C`C`C`C`C`C`C`C`C`C`C`C`C`C`C`C`C`C`C`C`C`C`C`C`C`C`C`C`C`C`C`C`C`C",
"`C`C`C`C`C`C`C`C`C`C`C`C`C`C`C`C`C`C`C`C`C`C`C`C`C`C`C`C`C`C`C`C`C`C`C`C`C`C`C`C`C`C`C`C`C`C`C`C",
"`C`C`C`C`C`C`C`C`C`C`C`C`C`C`C`C`C`C`C`C`C`C`C`C`C`C`C`C`C`C`C`C`C`C`C`C`C`C`C`C`C`C`C`C`C`C`C`C",
"`C`C`C`C`C`C`C`C`C`C`C`C`C`C`C`C`C`C`C`C`C`C`C`C`C`C`C`C`C`C`C`C`C`C`C`C`C`C`C`C`C`C`C`C`C`C`C`C",
"`C`C`C`C`C`C`C`C`C`C`C`C`C`C`C`C`C`C`C`C`C`C`C`C`C`C`C`C`C`C`C`C`C`C`C`C`C`C`C`C`C`C`C`C`C`C`C`C",
"`C`C`C`C`C`C`C`C`C`C`C`C`C`C`C`C`C`C`C`C`C`C`C`C`C`C`C`C`C`C`C`C`C`C`C`C`C`C`C`C`C`C`C`C`C`C`C`C",
"`C`C`C`C`C`C`C`C`C`C`C`C`C`C`C`C`C`C`C`C`C`C`C`C`C`C`C`C`C`C`C`C`C`C`C`C`C`C`C`C`C`C`C`C`C`C`C`C",
"`C`C`C`C`C`C`C`C`C`C`C`C`C`C`C`C`C`C`C`C`C`C`C`C`C`C`C`C`C`C`C`C`C`C`C`C`C`C`C`C`C`C`C`C`C`C`C`C",
"`C`C`C`C`C`C`C`C`C`C`C`C`C`C`C`C`C`C`C`C`C`C`C`C`C`C`C`C`C`C`C`C`C`C`C`C`C`C`C`C`C`C`C`C`C`C`C`C",
"`C`C`C`C`C`C`C`C`C`C`C`C`C`C`C`C`C`C`C`C`C`C`C`C`C`C`C`C`C`C`C`C`C`C`C`C`C`C`C`C`C`C`C`C`C`C`C`C",
"`C`C`C`C`C`C`C`C`C`C`C`C`C`C`C`C`C`C`C`C`C`C`C`C`C`C`C`C`C`C`C`C`C`C`C`C`C`C`C`C`C`C`C`C`C`C`C`C",
"`C`C`C`C`C`C`C`C`C`C`C`C`C`C`C`C`C`C`C`C`C`C`C`C`C`C`C`C`C`C`C`C`C`C`C`C`C`C`C`C`C`C`C`C`C`C`C`C",
"`C`C`C`C`C`C`C`C`C`C`C`C`C`C`C`C`C`C`C`C`C`C`C`C`C`C`C`C`C`C`C`C`C`C`C`C`C`C`C`C`C`C`C`C`C`C`C`C"
};
